<svg width="199" height="348" viewBox="0 0 199 348" fill="none" xmlns="http://www.w3.org/2000/svg">
<path d="M21.25 20.1641V1.29688H80.4492V20.1641H60.4883V97H41.2109V20.1641H21.25ZM88.2422 97V1.29688H107.52V97H88.2422ZM66.1621 222L83.7988 142.43H85.8496L94.0527 180.711L85.0293 222H66.1621ZM95.2832 210.379L99.3848 191.512H104.307L89.8145 126.297H108.818L131.377 222H112.236L109.502 210.379H95.2832ZM139.17 197.254V151.18C139.17 145.893 141.13 140.743 145.049 135.73C150.244 129.077 157.262 125.704 166.104 125.613V144.891C162.275 144.982 159.814 146.759 158.721 150.223C158.538 150.587 158.447 150.906 158.447 151.18V197.254C158.447 198.712 159.222 200.125 160.771 201.492C162.23 202.768 164.007 203.406 166.104 203.406V222.684C155.895 222.684 148.193 218.4 142.998 209.832C140.446 205.457 139.17 201.264 139.17 197.254ZM173.486 222.684V203.406C173.486 203.406 174.535 202.996 176.631 202.176C177.907 201.264 178.773 200.307 179.229 199.305C179.684 198.12 179.912 196.434 179.912 194.246V192.605L198.779 197.117C198.779 205.047 195.589 211.609 189.209 216.805C184.378 220.724 179.137 222.684 173.486 222.684ZM173.486 144.891V125.613C180.14 125.613 186.156 128.53 191.533 134.363C196.364 139.65 198.779 145.346 198.779 151.453L179.912 156.375V154.324C179.912 152.046 179.684 150.359 179.229 149.266C178.864 148.354 178.18 147.534 177.178 146.805C176.266 146.076 175.446 145.574 174.717 145.301L173.486 144.891ZM4.22852 270.164V251.297H63.4277V270.164H43.4668V347H24.1895V270.164H4.22852Z" fill="#FF5555"/>
<path d="M118.457 72.2539V26.1797C118.457 20.8932 120.417 15.7435 124.336 10.7305C129.531 4.07682 136.549 0.704427 145.391 0.613281V19.8906C141.562 19.9818 139.102 21.7591 138.008 25.2227C137.826 25.5872 137.734 25.9062 137.734 26.1797V72.2539C137.734 73.7122 138.509 75.125 140.059 76.4922C141.517 77.7682 143.294 78.4062 145.391 78.4062V97.6836C135.182 97.6836 127.48 93.3997 122.285 84.832C119.733 80.457 118.457 76.2643 118.457 72.2539ZM152.773 97.6836V78.4062C152.773 78.4062 153.822 77.9961 155.918 77.1758C157.194 76.2643 158.06 75.3073 158.516 74.3047C158.971 73.1198 159.199 71.4336 159.199 69.2461V67.6055L178.066 72.1172C178.066 80.0469 174.876 86.6094 168.496 91.8047C163.665 95.724 158.424 97.6836 152.773 97.6836ZM152.773 19.8906V0.613281C159.427 0.613281 165.443 3.52995 170.82 9.36328C175.651 14.6497 178.066 20.3464 178.066 26.4531L159.199 31.375V29.3242C159.199 27.0456 158.971 25.3594 158.516 24.2656C158.151 23.3542 157.467 22.5339 156.465 21.8047C155.553 21.0755 154.733 20.5742 154.004 20.3008L152.773 19.8906ZM0.537109 145.164V126.297H59.7363V145.164H39.7754V222H20.498V145.164H0.537109ZM70.6738 320.34V275.359C70.6738 270.529 72.7246 265.607 76.8262 260.594C82.2949 254.031 89.222 250.704 97.6074 250.613V269.891C93.8704 269.982 91.4095 272.078 90.2246 276.18C90.0423 276.818 89.9512 277.273 89.9512 277.547V320.34C89.9512 324.077 92.002 326.629 96.1035 327.996C96.7415 328.178 97.1973 328.27 97.4707 328.27V347.684C92.2754 347.684 87.0801 345.815 81.8848 342.078C74.502 336.609 70.765 329.363 70.6738 320.34ZM104.99 347.684V328.27C106.449 328.27 108.089 327.495 109.912 325.945C111.644 324.396 112.555 322.527 112.646 320.34V277.547C112.646 275.906 111.872 274.174 110.322 272.352C108.864 270.802 107.087 269.982 104.99 269.891V250.613C114.196 250.613 121.579 254.578 127.139 262.508C130.329 267.065 131.924 271.349 131.924 275.359V320.34C131.924 330.457 127.412 338.204 118.389 343.582C113.649 346.316 109.183 347.684 104.99 347.684ZM142.861 347V251.297H192.627V270.438H162.139V289.852H179.775V309.129H162.139V327.723H192.627V347H142.861Z" fill="#FFF96E"/>
<path d="M21.25 20.1641H19.25V22.1641H21.25V20.1641ZM21.25 1.29688V-0.703125H19.25V1.29688H21.25ZM80.4492 1.29688H82.4492V-0.703125H80.4492V1.29688ZM80.4492 20.1641V22.1641H82.4492V20.1641H80.4492ZM60.4883 20.1641V18.1641H58.4883V20.1641H60.4883ZM60.4883 97V99H62.4883V97H60.4883ZM41.2109 97H39.2109V99H41.2109V97ZM41.2109 20.1641H43.2109V18.1641H41.2109V20.1641ZM23.25 20.1641V1.29688H19.25V20.1641H23.25ZM21.25 3.29688H80.4492V-0.703125H21.25V3.29688ZM78.4492 1.29688V20.1641H82.4492V1.29688H78.4492ZM80.4492 18.1641H60.4883V22.1641H80.4492V18.1641ZM58.4883 20.1641V97H62.4883V20.1641H58.4883ZM60.4883 95H41.2109V99H60.4883V95ZM43.2109 97V20.1641H39.2109V97H43.2109ZM41.2109 18.1641H21.25V22.1641H41.2109V18.1641ZM88.2422 97H86.2422V99H88.2422V97ZM88.2422 1.29688V-0.703125H86.2422V1.29688H88.2422ZM107.52 1.29688H109.52V-0.703125H107.52V1.29688ZM107.52 97V99H109.52V97H107.52ZM90.2422 97V1.29688H86.2422V97H90.2422ZM88.2422 3.29688H107.52V-0.703125H88.2422V3.29688ZM105.52 1.29688V97H109.52V1.29688H105.52ZM107.52 95H88.2422V99H107.52V95ZM124.336 10.7305L125.912 11.9623L125.912 11.9613L124.336 10.7305ZM145.391 0.613281H147.391V-1.40744L145.37 -1.38661L145.391 0.613281ZM145.391 19.8906L145.438 21.8901L147.391 21.8436V19.8906H145.391ZM138.008 25.2227L139.797 26.1171L139.867 25.9757L139.915 25.8249L138.008 25.2227ZM140.059 76.4922L138.735 77.9919L138.742 77.9973L140.059 76.4922ZM145.391 78.4062H147.391V76.4062H145.391V78.4062ZM145.391 97.6836V99.6836H147.391V97.6836H145.391ZM122.285 84.832L120.558 85.8398L120.566 85.8545L120.575 85.869L122.285 84.832ZM152.773 97.6836H150.773V99.6836H152.773V97.6836ZM152.773 78.4062L152.045 76.5438L150.773 77.0412V78.4062H152.773ZM155.918 77.1758L156.647 79.0383L156.878 78.9477L157.08 78.8032L155.918 77.1758ZM158.516 74.3047L160.336 75.1323L160.361 75.0782L160.382 75.0226L158.516 74.3047ZM159.199 67.6055L159.664 65.6603L157.199 65.0708V67.6055H159.199ZM178.066 72.1172H180.066V70.5391L178.532 70.172L178.066 72.1172ZM168.496 91.8047L169.756 93.3578L169.759 93.3556L168.496 91.8047ZM152.773 19.8906H150.773V21.3321L152.141 21.788L152.773 19.8906ZM152.773 0.613281V-1.38672H150.773V0.613281H152.773ZM170.82 9.36328L172.297 8.01413L172.291 8.00768L170.82 9.36328ZM178.066 26.4531L178.571 28.3884L180.066 27.9983V26.4531H178.066ZM159.199 31.375H157.199V33.9637L159.704 33.3102L159.199 31.375ZM158.516 24.2656L156.659 25.0084L156.664 25.0217L156.669 25.0349L158.516 24.2656ZM156.465 21.8047L155.215 23.3664L155.251 23.3951L155.289 23.4222L156.465 21.8047ZM154.004 20.3008L154.706 18.4281L154.671 18.4151L154.636 18.4034L154.004 20.3008ZM120.457 72.2539V26.1797H116.457V72.2539H120.457ZM120.457 26.1797C120.457 21.4253 122.209 16.6976 125.912 11.9623L122.76 9.49862C118.624 14.7894 116.457 20.3611 116.457 26.1797H120.457ZM125.912 11.9613C130.713 5.81309 137.145 2.69839 145.411 2.61317L145.37 -1.38661C135.954 -1.28954 128.349 2.34056 122.76 9.4996L125.912 11.9613ZM143.391 0.613281V19.8906H147.391V0.613281H143.391ZM145.343 17.8912C143.131 17.9439 141.137 18.4901 139.503 19.6706C137.859 20.8576 136.751 22.5615 136.101 24.6204L139.915 25.8249C140.359 24.4203 141.027 23.5038 141.845 22.9134C142.671 22.3165 143.822 21.9285 145.438 21.8901L145.343 17.8912ZM136.219 24.3282C135.96 24.8455 135.734 25.481 135.734 26.1797H139.734C139.734 26.2634 139.721 26.3023 139.726 26.2848C139.731 26.2675 139.749 26.2128 139.797 26.1171L136.219 24.3282ZM135.734 26.1797V72.2539H139.734V26.1797H135.734ZM135.734 72.2539C135.734 74.4936 136.941 76.4082 138.735 77.9919L141.382 74.9925C140.078 73.8418 139.734 72.9309 139.734 72.2539H135.734ZM138.742 77.9973C140.596 79.6195 142.853 80.4062 145.391 80.4062V76.4062C143.736 76.4062 142.438 75.9169 141.376 74.987L138.742 77.9973ZM143.391 78.4062V97.6836H147.391V78.4062H143.391ZM145.391 95.6836C135.865 95.6836 128.82 91.7512 123.995 83.795L120.575 85.869C126.141 95.0483 134.499 99.6836 145.391 99.6836V95.6836ZM124.013 83.8243C121.593 79.6759 120.457 75.8285 120.457 72.2539H116.457C116.457 76.7001 117.873 81.2382 120.558 85.8398L124.013 83.8243ZM154.773 97.6836V78.4062H150.773V97.6836H154.773ZM152.773 78.4062C153.502 80.2687 153.502 80.2687 153.502 80.2687C153.502 80.2687 153.502 80.2687 153.502 80.2687C153.502 80.2687 153.502 80.2687 153.502 80.2687C153.502 80.2687 153.502 80.2687 153.502 80.2687C153.503 80.2686 153.503 80.2686 153.503 80.2684C153.503 80.2683 153.503 80.2683 153.504 80.2681C153.504 80.268 153.504 80.268 153.504 80.2679C153.504 80.2679 153.504 80.2679 153.505 80.2678C153.505 80.2677 153.505 80.2676 153.505 80.2675C153.507 80.267 153.511 80.2653 153.515 80.2639C153.517 80.2631 153.541 80.2535 153.551 80.2495C153.567 80.2433 153.65 80.2108 153.699 80.1918C153.711 80.1869 153.789 80.1567 153.809 80.1486C153.824 80.1429 153.857 80.1298 153.874 80.1233C153.882 80.1202 153.9 80.1132 153.908 80.1098C153.929 80.1016 153.923 80.1041 153.944 80.0957C154.026 80.064 154.015 80.0681 154.104 80.0332C154.193 79.9983 154.102 80.034 154.193 79.9984C154.209 79.992 154.188 80.0002 154.205 79.9938C154.209 79.9923 154.212 79.9908 154.216 79.9893C154.224 79.9862 154.232 79.9831 154.24 79.98C154.244 79.9785 154.248 79.9769 154.252 79.9754C154.269 79.9688 154.247 79.9773 154.264 79.9707C154.266 79.9699 154.268 79.9691 154.27 79.9683C154.272 79.9675 154.274 79.9667 154.276 79.9659C154.28 79.9643 154.284 79.9627 154.288 79.9611C154.419 79.91 154.567 79.8521 154.731 79.7881C154.751 79.7801 154.772 79.772 154.793 79.7638C154.795 79.7627 154.798 79.7617 154.801 79.7607C154.803 79.7596 154.806 79.7586 154.809 79.7576C154.81 79.7571 154.823 79.7518 154.824 79.7514C154.85 79.7412 154.83 79.749 154.856 79.7388C154.975 79.6926 154.868 79.7342 154.989 79.6871C155 79.6827 155.011 79.6783 155.022 79.6739C155.028 79.6716 155.034 79.6694 155.04 79.6672C155.041 79.6667 155.056 79.6609 155.057 79.6604C155.156 79.6217 155.027 79.672 155.127 79.6331C155.242 79.588 155.154 79.6225 155.271 79.5766C155.493 79.4896 155.655 79.4265 155.91 79.3267C155.999 79.2918 155.907 79.3278 155.997 79.2927C156.047 79.273 155.968 79.3039 156.018 79.2841C156.026 79.2813 156.033 79.2784 156.04 79.2755C156.055 79.2698 156.07 79.264 156.085 79.2582C156.092 79.2553 156.1 79.2524 156.107 79.2494C156.111 79.248 156.115 79.2465 156.118 79.2451C156.122 79.2436 156.126 79.2421 156.13 79.2407C156.133 79.2392 156.137 79.2377 156.141 79.2363C156.145 79.2348 156.148 79.2333 156.152 79.2319C156.156 79.2304 156.16 79.2289 156.163 79.2274C156.167 79.226 156.171 79.2245 156.175 79.223C156.208 79.2099 156.164 79.2273 156.197 79.2141C156.201 79.2127 156.205 79.2112 156.209 79.2097C156.213 79.2082 156.216 79.2067 156.22 79.2052C156.224 79.2037 156.228 79.2022 156.232 79.2007C156.235 79.1993 156.239 79.1978 156.243 79.1963C156.316 79.1677 156.193 79.2159 156.266 79.1873C156.311 79.1698 156.268 79.1867 156.312 79.1692C156.355 79.1523 156.292 79.1769 156.336 79.1601C156.339 79.1585 156.343 79.157 156.347 79.1555C156.351 79.154 156.355 79.1524 156.359 79.1509C156.363 79.1494 156.367 79.1479 156.371 79.1463C156.375 79.1448 156.378 79.1433 156.382 79.1417C156.426 79.1247 156.362 79.1496 156.406 79.1325C156.497 79.0967 156.362 79.1498 156.453 79.114C156.517 79.0891 156.581 79.0639 156.647 79.0383L155.189 75.3133C155.051 75.3674 155.229 75.2975 155.092 75.3514C154.999 75.3877 155.136 75.3341 155.043 75.3703C155.031 75.3752 155.032 75.3748 155.02 75.3797C155.016 75.3812 155.012 75.3828 155.008 75.3843C155.004 75.3859 155 75.3874 154.996 75.389C154.987 75.3925 154.91 75.4226 154.901 75.4259C154.858 75.4429 154.921 75.4181 154.878 75.4351C154.874 75.4366 154.87 75.4381 154.866 75.4396C154.862 75.4412 154.859 75.4427 154.855 75.4442C154.851 75.4457 154.847 75.4472 154.843 75.4487C154.839 75.4502 154.835 75.4518 154.831 75.4533C154.789 75.47 154.851 75.4455 154.808 75.4623C154.714 75.4993 154.72 75.497 154.627 75.5332C154.552 75.5628 154.526 75.5729 154.452 75.6017C154.416 75.616 154.403 75.6209 154.367 75.635C154.279 75.6693 154.37 75.6337 154.283 75.6678C154.198 75.701 154.203 75.6991 154.121 75.7315C154.101 75.739 154.12 75.7317 154.101 75.7393C154.097 75.7406 154.094 75.7418 154.091 75.7431C154.087 75.7444 154.084 75.7457 154.081 75.747C154.077 75.7483 154.074 75.7496 154.071 75.7509C154.068 75.7522 154.064 75.7534 154.061 75.7547C154.042 75.7621 154.06 75.755 154.041 75.7624C153.961 75.7938 154.044 75.7616 153.964 75.7927C153.961 75.794 153.958 75.7952 153.954 75.7965C153.951 75.7977 153.948 75.799 153.945 75.8002C153.942 75.8015 153.938 75.8027 153.935 75.804C153.932 75.8052 153.929 75.8065 153.926 75.8077C153.898 75.8187 153.935 75.8041 153.907 75.8151C153.899 75.8183 153.896 75.8193 153.888 75.8225C153.884 75.8239 153.854 75.8358 153.85 75.8371C153.815 75.8512 153.849 75.8376 153.813 75.8516C153.389 76.0176 153.124 76.1214 152.831 76.2361C152.695 76.2893 152.246 76.465 152.241 76.4669C152.103 76.521 152.285 76.4495 152.155 76.5005C152.089 76.5265 152.152 76.5018 152.094 76.5245C152.093 76.525 152.092 76.5253 152.091 76.5257C152.089 76.5266 152.09 76.526 152.088 76.5269C152.084 76.5282 152.088 76.5267 152.085 76.528C152.085 76.5282 152.084 76.5283 152.084 76.5285C152.083 76.5287 152.083 76.5289 152.082 76.529C152.06 76.5378 152.094 76.5244 152.072 76.5329C152.071 76.5336 152.065 76.5358 152.064 76.5363C152.063 76.5365 152.062 76.5368 152.062 76.537C152.062 76.5371 152.061 76.5372 152.061 76.5373C152.061 76.5375 152.06 76.5376 152.06 76.5377C152.057 76.5391 152.06 76.5376 152.057 76.539C152.051 76.5413 152.057 76.5389 152.052 76.5411C152.048 76.5426 152.053 76.5404 152.049 76.5419C152.049 76.5419 152.049 76.542 152.049 76.5421C152.049 76.5421 152.049 76.5422 152.049 76.5422C152.048 76.5424 152.048 76.5424 152.048 76.5426C152.047 76.5428 152.046 76.5434 152.045 76.5435C152.045 76.5436 152.045 76.5435 152.045 76.5436C152.045 76.5436 152.045 76.5436 152.045 76.5436C152.045 76.5437 152.045 76.5437 152.045 76.5437C152.045 76.5437 152.045 76.5437 152.045 76.5437C152.045 76.5438 152.045 76.5438 152.045 76.5438C152.045 76.5438 152.045 76.5438 152.773 78.4062ZM157.08 78.8032C158.528 77.7693 159.686 76.5621 160.336 75.1323L156.695 73.4771C156.433 74.0525 155.86 74.7593 154.755 75.5483L157.08 78.8032ZM160.382 75.0226C160.968 73.5005 161.199 71.5278 161.199 69.2461H157.199C157.199 71.3394 156.975 72.7391 156.649 73.5867L160.382 75.0226ZM161.199 69.2461V67.6055H157.199V69.2461H161.199ZM158.734 69.5506L177.601 74.0623L178.532 70.172L159.664 65.6603L158.734 69.5506ZM176.066 72.1172C176.066 79.4197 173.167 85.4218 167.233 90.2538L169.759 93.3556C176.585 87.7969 180.066 80.674 180.066 72.1172H176.066ZM167.236 90.2516C162.723 93.9128 157.919 95.6836 152.773 95.6836V99.6836C158.93 99.6836 164.607 97.5351 169.756 93.3578L167.236 90.2516ZM154.773 19.8906V0.613281H150.773V19.8906H154.773ZM152.773 2.61328C158.761 2.61328 164.272 5.21042 169.35 10.7189L172.291 8.00768C166.614 1.84947 160.093 -1.38672 152.773 -1.38672V2.61328ZM169.344 10.7124C173.9 15.698 176.066 20.9303 176.066 26.4531H180.066C180.066 19.7624 177.402 13.6015 172.297 8.01414L169.344 10.7124ZM177.562 24.5179L158.694 29.4398L159.704 33.3102L178.571 28.3884L177.562 24.5179ZM161.199 31.375V29.3242H157.199V31.375H161.199ZM161.199 29.3242C161.199 26.98 160.975 24.9672 160.362 23.4964L156.669 25.0349C156.968 25.7516 157.199 27.1112 157.199 29.3242H161.199ZM160.373 23.5228C159.836 22.1803 158.869 21.0802 157.641 20.1872L155.289 23.4222C156.066 23.9875 156.467 24.5281 156.659 25.0084L160.373 23.5228ZM157.714 20.2429C156.712 19.4409 155.705 18.8028 154.706 18.4281L153.302 22.1734C153.761 22.3456 154.395 22.7101 155.215 23.3664L157.714 20.2429ZM154.636 18.4034L153.406 17.9933L152.141 21.788L153.371 22.1981L154.636 18.4034ZM0.537109 145.164H-1.46289V147.164H0.537109V145.164ZM0.537109 126.297V124.297H-1.46289V126.297H0.537109ZM59.7363 126.297H61.7363V124.297H59.7363V126.297ZM59.7363 145.164V147.164H61.7363V145.164H59.7363ZM39.7754 145.164V143.164H37.7754V145.164H39.7754ZM39.7754 222V224H41.7754V222H39.7754ZM20.498 222H18.498V224H20.498V222ZM20.498 145.164H22.498V143.164H20.498V145.164ZM2.53711 145.164V126.297H-1.46289V145.164H2.53711ZM0.537109 128.297H59.7363V124.297H0.537109V128.297ZM57.7363 126.297V145.164H61.7363V126.297H57.7363ZM59.7363 143.164H39.7754V147.164H59.7363V143.164ZM37.7754 145.164V222H41.7754V145.164H37.7754ZM39.7754 220H20.498V224H39.7754V220ZM22.498 222V145.164H18.498V222H22.498ZM20.498 143.164H0.537109V147.164H20.498V143.164ZM66.1621 222L64.2095 221.567L63.6703 224H66.1621V222ZM83.7988 142.43V140.43H82.1936L81.8462 141.997L83.7988 142.43ZM85.8496 142.43L87.8052 142.011L87.4664 140.43H85.8496V142.43ZM94.0527 180.711L96.0066 181.138L96.099 180.715L96.0083 180.292L94.0527 180.711ZM85.0293 222V224H86.6394L86.9832 222.427L85.0293 222ZM95.2832 210.379L93.3289 209.954L92.8017 212.379H95.2832V210.379ZM99.3848 191.512V189.512H97.7728L97.4304 191.087L99.3848 191.512ZM104.307 191.512V193.512H106.8L106.259 191.078L104.307 191.512ZM89.8145 126.297V124.297H87.3212L87.8621 126.731L89.8145 126.297ZM108.818 126.297L110.765 125.838L110.402 124.297H108.818V126.297ZM131.377 222V224H133.903L133.324 221.541L131.377 222ZM112.236 222L110.289 222.458L110.652 224H112.236V222ZM109.502 210.379L111.449 209.921L111.086 208.379H109.502V210.379ZM68.1147 222.433L85.7514 142.862L81.8462 141.997L64.2095 221.567L68.1147 222.433ZM83.7988 144.43H85.8496V140.43H83.7988V144.43ZM83.894 142.849L92.0971 181.13L96.0083 180.292L87.8052 142.011L83.894 142.849ZM92.0988 180.284L83.0754 221.573L86.9832 222.427L96.0066 181.138L92.0988 180.284ZM85.0293 220H66.1621V224H85.0293V220ZM97.2376 210.804L101.339 191.937L97.4304 191.087L93.3289 209.954L97.2376 210.804ZM99.3848 193.512H104.307V189.512H99.3848V193.512ZM106.259 191.078L91.7668 125.863L87.8621 126.731L102.354 191.946L106.259 191.078ZM89.8145 128.297H108.818V124.297H89.8145V128.297ZM106.872 126.756L129.43 222.459L133.324 221.541L110.765 125.838L106.872 126.756ZM131.377 220H112.236V224H131.377V220ZM114.183 221.542L111.449 209.921L107.555 210.837L110.289 222.458L114.183 221.542ZM109.502 208.379H95.2832V212.379H109.502V208.379ZM145.049 135.73L146.624 136.962L146.625 136.961L145.049 135.73ZM166.104 125.613H168.104V123.593L166.083 123.613L166.104 125.613ZM166.104 144.891L166.151 146.89L168.104 146.844V144.891H166.104ZM158.721 150.223L160.51 151.117L160.58 150.976L160.628 150.825L158.721 150.223ZM160.771 201.492L159.448 202.992L159.454 202.997L160.771 201.492ZM166.104 203.406H168.104V201.406H166.104V203.406ZM166.104 222.684V224.684H168.104V222.684H166.104ZM142.998 209.832L141.27 210.84L141.279 210.854L141.288 210.869L142.998 209.832ZM173.486 222.684H171.486V224.684H173.486V222.684ZM173.486 203.406L172.758 201.544L171.486 202.041V203.406H173.486ZM176.631 202.176L177.36 204.038L177.591 203.948L177.793 203.803L176.631 202.176ZM179.229 199.305L181.049 200.132L181.074 200.078L181.095 200.023L179.229 199.305ZM179.912 192.605L180.377 190.66L177.912 190.071V192.605H179.912ZM198.779 197.117H200.779V195.539L199.244 195.172L198.779 197.117ZM189.209 216.805L190.469 218.358L190.472 218.356L189.209 216.805ZM173.486 144.891H171.486V146.332L172.854 146.788L173.486 144.891ZM173.486 125.613V123.613H171.486V125.613H173.486ZM191.533 134.363L193.01 133.014L193.004 133.008L191.533 134.363ZM198.779 151.453L199.284 153.388L200.779 152.998V151.453H198.779ZM179.912 156.375H177.912V158.964L180.417 158.31L179.912 156.375ZM179.229 149.266L177.372 150.008L177.377 150.022L177.382 150.035L179.229 149.266ZM177.178 146.805L175.928 148.366L175.964 148.395L176.001 148.422L177.178 146.805ZM174.717 145.301L175.419 143.428L175.384 143.415L175.349 143.403L174.717 145.301ZM141.17 197.254V151.18H137.17V197.254H141.17ZM141.17 151.18C141.17 146.425 142.922 141.698 146.624 136.962L143.473 134.499C139.337 139.789 137.17 145.361 137.17 151.18H141.17ZM146.625 136.961C151.426 130.813 157.858 127.698 166.124 127.613L166.083 123.613C156.667 123.71 149.062 127.341 143.472 134.5L146.625 136.961ZM164.104 125.613V144.891H168.104V125.613H164.104ZM166.056 142.891C163.844 142.944 161.85 143.49 160.216 144.671C158.572 145.858 157.464 147.561 156.814 149.62L160.628 150.825C161.071 149.42 161.74 148.504 162.558 147.913C163.384 147.317 164.535 146.929 166.151 146.89L166.056 142.891ZM156.932 149.328C156.673 149.845 156.447 150.481 156.447 151.18H160.447C160.447 151.263 160.434 151.302 160.439 151.285C160.444 151.267 160.462 151.213 160.51 151.117L156.932 149.328ZM156.447 151.18V197.254H160.447V151.18H156.447ZM156.447 197.254C156.447 199.494 157.653 201.408 159.448 202.992L162.095 199.993C160.791 198.842 160.447 197.931 160.447 197.254H156.447ZM159.454 202.997C161.308 204.62 163.566 205.406 166.104 205.406V201.406C164.449 201.406 163.151 200.917 162.088 199.987L159.454 202.997ZM164.104 203.406V222.684H168.104V203.406H164.104ZM166.104 220.684C156.578 220.684 149.533 216.751 144.708 208.795L141.288 210.869C146.854 220.048 155.212 224.684 166.104 224.684V220.684ZM144.726 208.824C142.306 204.676 141.17 200.829 141.17 197.254H137.17C137.17 201.7 138.586 206.238 141.27 210.84L144.726 208.824ZM175.486 222.684V203.406H171.486V222.684H175.486ZM173.486 203.406C174.215 205.269 174.215 205.269 174.215 205.269C174.215 205.269 174.215 205.269 174.215 205.269C174.215 205.269 174.215 205.269 174.215 205.269C174.215 205.269 174.215 205.269 174.215 205.269C174.215 205.269 174.216 205.269 174.216 205.268C174.216 205.268 174.216 205.268 174.217 205.268C174.217 205.268 174.217 205.268 174.217 205.268C174.217 205.268 174.217 205.268 174.217 205.268C174.218 205.268 174.218 205.268 174.218 205.268C174.22 205.267 174.224 205.265 174.227 205.264C174.23 205.263 174.254 205.254 174.264 205.25C174.28 205.243 174.363 205.211 174.412 205.192C174.424 205.187 174.501 205.157 174.522 205.149C174.537 205.143 174.57 205.13 174.587 205.123C174.595 205.12 174.613 205.113 174.621 205.11C174.642 205.102 174.636 205.104 174.657 205.096C174.738 205.064 174.728 205.068 174.817 205.033C174.906 204.998 174.815 205.034 174.906 204.998C174.922 204.992 174.901 205 174.918 204.994C174.921 204.992 174.925 204.991 174.929 204.989C174.937 204.986 174.945 204.983 174.953 204.98C174.957 204.978 174.961 204.977 174.965 204.975C174.982 204.969 174.96 204.977 174.977 204.971C174.979 204.97 174.981 204.969 174.983 204.968C174.985 204.967 174.987 204.967 174.989 204.966C174.993 204.964 174.997 204.963 175.001 204.961C175.132 204.91 175.28 204.852 175.443 204.788C175.464 204.78 175.485 204.772 175.506 204.764C175.508 204.763 175.511 204.762 175.514 204.761C175.516 204.76 175.519 204.759 175.521 204.758C175.523 204.757 175.536 204.752 175.537 204.751C175.563 204.741 175.543 204.749 175.569 204.739C175.688 204.693 175.581 204.734 175.701 204.687C175.713 204.683 175.724 204.678 175.735 204.674C175.741 204.672 175.747 204.669 175.753 204.667C175.754 204.667 175.768 204.661 175.77 204.66C175.869 204.622 175.74 204.672 175.84 204.633C175.955 204.588 175.867 204.622 175.984 204.577C176.206 204.49 176.368 204.426 176.623 204.327C176.712 204.292 176.62 204.328 176.709 204.293C176.76 204.273 176.681 204.304 176.731 204.284C176.739 204.281 176.746 204.278 176.753 204.276C176.768 204.27 176.783 204.264 176.798 204.258C176.805 204.255 176.813 204.252 176.82 204.249C176.824 204.248 176.827 204.247 176.831 204.245C176.835 204.244 176.839 204.242 176.842 204.241C176.846 204.239 176.85 204.238 176.854 204.236C176.857 204.235 176.861 204.233 176.865 204.232C176.869 204.23 176.872 204.229 176.876 204.227C176.88 204.226 176.884 204.224 176.888 204.223C176.921 204.21 176.877 204.227 176.91 204.214C176.914 204.213 176.918 204.211 176.922 204.21C176.925 204.208 176.929 204.207 176.933 204.205C176.937 204.204 176.941 204.202 176.944 204.201C176.948 204.199 176.952 204.198 176.956 204.196C177.029 204.168 176.906 204.216 176.979 204.187C177.023 204.17 176.98 204.187 177.025 204.169C177.068 204.152 177.005 204.177 177.048 204.16C177.052 204.159 177.056 204.157 177.06 204.155C177.064 204.154 177.068 204.152 177.072 204.151C177.076 204.149 177.08 204.148 177.083 204.146C177.087 204.145 177.091 204.143 177.095 204.142C177.139 204.125 177.075 204.15 177.119 204.133C177.21 204.097 177.075 204.15 177.166 204.114C177.23 204.089 177.294 204.064 177.36 204.038L175.902 200.313C175.764 200.367 175.942 200.298 175.805 200.351C175.712 200.388 175.849 200.334 175.756 200.37C175.744 200.375 175.745 200.375 175.732 200.38C175.728 200.381 175.724 200.383 175.721 200.384C175.717 200.386 175.713 200.387 175.709 200.389C175.7 200.393 175.623 200.423 175.614 200.426C175.571 200.443 175.634 200.418 175.591 200.435C175.587 200.437 175.583 200.438 175.579 200.44C175.575 200.441 175.571 200.443 175.568 200.444C175.564 200.446 175.56 200.447 175.556 200.449C175.552 200.45 175.548 200.452 175.544 200.453C175.502 200.47 175.564 200.446 175.521 200.462C175.427 200.499 175.433 200.497 175.34 200.533C175.265 200.563 175.239 200.573 175.165 200.602C175.129 200.616 175.116 200.621 175.08 200.635C174.992 200.669 175.083 200.634 174.996 200.668C174.911 200.701 174.916 200.699 174.833 200.731C174.814 200.739 174.833 200.732 174.813 200.739C174.81 200.741 174.807 200.742 174.804 200.743C174.8 200.744 174.797 200.746 174.794 200.747C174.79 200.748 174.787 200.75 174.784 200.751C174.781 200.752 174.777 200.753 174.774 200.755C174.755 200.762 174.773 200.755 174.754 200.762C174.674 200.794 174.756 200.762 174.677 200.793C174.674 200.794 174.67 200.795 174.667 200.796C174.664 200.798 174.661 200.799 174.658 200.8C174.654 200.801 174.651 200.803 174.648 200.804C174.645 200.805 174.642 200.806 174.639 200.808C174.611 200.819 174.648 200.804 174.62 200.815C174.612 200.818 174.609 200.819 174.601 200.822C174.597 200.824 174.567 200.836 174.563 200.837C174.528 200.851 174.562 200.838 174.526 200.852C174.102 201.018 173.837 201.121 173.544 201.236C173.408 201.289 172.959 201.465 172.954 201.467C172.816 201.521 172.998 201.45 172.868 201.501C172.802 201.526 172.865 201.502 172.807 201.525C172.806 201.525 172.805 201.525 172.804 201.526C172.801 201.527 172.803 201.526 172.801 201.527C172.797 201.528 172.801 201.527 172.798 201.528C172.797 201.528 172.797 201.528 172.797 201.529C172.796 201.529 172.796 201.529 172.795 201.529C172.773 201.538 172.807 201.524 172.785 201.533C172.784 201.534 172.778 201.536 172.777 201.536C172.776 201.536 172.775 201.537 172.775 201.537C172.775 201.537 172.774 201.537 172.774 201.537C172.774 201.537 172.773 201.538 172.773 201.538C172.77 201.539 172.773 201.538 172.77 201.539C172.764 201.541 172.77 201.539 172.764 201.541C172.761 201.543 172.766 201.54 172.762 201.542C172.762 201.542 172.762 201.542 172.762 201.542C172.762 201.542 172.762 201.542 172.761 201.542C172.761 201.542 172.761 201.542 172.761 201.543C172.76 201.543 172.758 201.543 172.758 201.543C172.758 201.544 172.758 201.544 172.758 201.544C172.758 201.544 172.758 201.544 172.758 201.544C172.758 201.544 172.758 201.544 172.758 201.544C172.758 201.544 172.758 201.544 172.758 201.544C172.758 201.544 172.758 201.544 172.758 201.544C172.758 201.544 172.758 201.544 173.486 203.406ZM177.793 203.803C179.241 202.769 180.399 201.562 181.049 200.132L177.408 198.477C177.146 199.052 176.573 199.759 175.468 200.548L177.793 203.803ZM181.095 200.023C181.681 198.501 181.912 196.528 181.912 194.246H177.912C177.912 196.339 177.688 197.739 177.362 198.587L181.095 200.023ZM181.912 194.246V192.605H177.912V194.246H181.912ZM179.447 194.551L198.314 199.062L199.244 195.172L180.377 190.66L179.447 194.551ZM196.779 197.117C196.779 204.42 193.88 210.422 187.946 215.254L190.472 218.356C197.298 212.797 200.779 205.674 200.779 197.117H196.779ZM187.949 215.252C183.436 218.913 178.632 220.684 173.486 220.684V224.684C179.643 224.684 185.32 222.535 190.469 218.358L187.949 215.252ZM175.486 144.891V125.613H171.486V144.891H175.486ZM173.486 127.613C179.474 127.613 184.985 130.21 190.063 135.719L193.004 133.008C187.327 126.849 180.806 123.613 173.486 123.613V127.613ZM190.057 135.712C194.613 140.698 196.779 145.93 196.779 151.453H200.779C200.779 144.762 198.115 138.602 193.01 133.014L190.057 135.712ZM198.274 149.518L179.407 154.44L180.417 158.31L199.284 153.388L198.274 149.518ZM181.912 156.375V154.324H177.912V156.375H181.912ZM181.912 154.324C181.912 151.98 181.687 149.967 181.075 148.496L177.382 150.035C177.681 150.752 177.912 152.111 177.912 154.324H181.912ZM181.085 148.523C180.548 147.18 179.582 146.08 178.354 145.187L176.001 148.422C176.779 148.988 177.179 149.528 177.372 150.008L181.085 148.523ZM178.427 145.243C177.425 144.441 176.418 143.803 175.419 143.428L174.015 147.173C174.474 147.346 175.108 147.71 175.928 148.366L178.427 145.243ZM175.349 143.403L174.119 142.993L172.854 146.788L174.084 147.198L175.349 143.403ZM4.22852 270.164H2.22852V272.164H4.22852V270.164ZM4.22852 251.297V249.297H2.22852V251.297H4.22852ZM63.4277 251.297H65.4277V249.297H63.4277V251.297ZM63.4277 270.164V272.164H65.4277V270.164H63.4277ZM43.4668 270.164V268.164H41.4668V270.164H43.4668ZM43.4668 347V349H45.4668V347H43.4668ZM24.1895 347H22.1895V349H24.1895V347ZM24.1895 270.164H26.1895V268.164H24.1895V270.164ZM6.22852 270.164V251.297H2.22852V270.164H6.22852ZM4.22852 253.297H63.4277V249.297H4.22852V253.297ZM61.4277 251.297V270.164H65.4277V251.297H61.4277ZM63.4277 268.164H43.4668V272.164H63.4277V268.164ZM41.4668 270.164V347H45.4668V270.164H41.4668ZM43.4668 345H24.1895V349H43.4668V345ZM26.1895 347V270.164H22.1895V347H26.1895ZM24.1895 268.164H4.22852V272.164H24.1895V268.164ZM70.6738 320.34H68.6738V320.35L68.6739 320.36L70.6738 320.34ZM76.8262 260.594L75.2897 259.313L75.284 259.32L75.2783 259.327L76.8262 260.594ZM97.6074 250.613H99.6074V248.591L97.5857 248.613L97.6074 250.613ZM97.6074 269.891L97.6562 271.89L99.6074 271.842V269.891H97.6074ZM90.2246 276.18L88.3032 275.625L88.3016 275.63L90.2246 276.18ZM96.1035 327.996L95.4711 329.893L95.5123 329.907L95.5541 329.919L96.1035 327.996ZM97.4707 328.27H99.4707V326.27H97.4707V328.27ZM97.4707 347.684V349.684H99.4707V347.684H97.4707ZM81.8848 342.078L80.6943 343.685L80.7056 343.694L80.7169 343.702L81.8848 342.078ZM104.99 347.684H102.99V349.684H104.99V347.684ZM104.99 328.27V326.27H102.99V328.27H104.99ZM109.912 325.945L111.207 327.469L111.227 327.453L111.246 327.436L109.912 325.945ZM112.646 320.34L114.645 320.423L114.646 320.381V320.34H112.646ZM110.322 272.352L111.846 271.056L111.813 271.018L111.779 270.981L110.322 272.352ZM104.99 269.891H102.99V271.806L104.903 271.889L104.99 269.891ZM104.99 250.613V248.613H102.99V250.613H104.99ZM127.139 262.508L128.777 261.361L128.776 261.36L127.139 262.508ZM118.389 343.582L119.388 345.314L119.4 345.307L119.413 345.3L118.389 343.582ZM72.6738 320.34V275.359H68.6738V320.34H72.6738ZM72.6738 275.359C72.6738 271.127 74.465 266.638 78.3741 261.86L75.2783 259.327C70.9842 264.576 68.6738 269.931 68.6738 275.359H72.6738ZM78.3626 261.874C83.4643 255.752 89.8422 252.698 97.6292 252.613L97.5857 248.613C88.6019 248.711 81.1255 252.31 75.2897 259.313L78.3626 261.874ZM95.6074 250.613V269.891H99.6074V250.613H95.6074ZM97.5587 267.891C95.307 267.946 93.2949 268.618 91.6621 270.009C90.0512 271.381 88.9702 273.316 88.3032 275.625L92.146 276.735C92.6639 274.942 93.4058 273.778 94.2559 273.054C95.084 272.348 96.1709 271.926 97.6562 271.89L97.5587 267.891ZM88.3016 275.63C88.1202 276.265 87.9512 276.963 87.9512 277.547H91.9512C91.9512 277.602 91.9457 277.567 91.9807 277.392C92.0123 277.234 92.0656 277.016 92.1477 276.729L88.3016 275.63ZM87.9512 277.547V320.34H91.9512V277.547H87.9512ZM87.9512 320.34C87.9512 322.596 88.5796 324.629 89.9302 326.309C91.262 327.967 93.1704 329.127 95.4711 329.893L96.736 326.099C94.9351 325.498 93.7673 324.699 93.0483 323.804C92.3481 322.933 91.9512 321.821 91.9512 320.34H87.9512ZM95.5541 329.919C96.1887 330.1 96.8873 330.27 97.4707 330.27V326.27C97.5255 326.27 97.4909 326.275 97.3161 326.24C97.1581 326.208 96.94 326.155 96.653 326.073L95.5541 329.919ZM95.4707 328.27V347.684H99.4707V328.27H95.4707ZM97.4707 345.684C92.7834 345.684 87.9878 344.004 83.0526 340.455L80.7169 343.702C86.1724 347.626 91.7674 349.684 97.4707 349.684V345.684ZM83.0752 340.471C76.1852 335.367 72.7584 328.703 72.6737 320.32L68.6739 320.36C68.7715 330.023 72.8187 337.851 80.6943 343.685L83.0752 340.471ZM106.99 347.684V328.27H102.99V347.684H106.99ZM104.99 330.27C107.145 330.27 109.238 329.143 111.207 327.469L108.617 324.421C106.94 325.847 105.752 326.27 104.99 326.27V330.27ZM111.246 327.436C113.352 325.551 114.53 323.186 114.645 320.423L110.648 320.257C110.581 321.869 109.935 323.241 108.579 324.455L111.246 327.436ZM114.646 320.34V277.547H110.646V320.34H114.646ZM114.646 277.547C114.646 275.256 113.565 273.079 111.846 271.056L108.798 273.647C110.178 275.27 110.646 276.557 110.646 277.547H114.646ZM111.779 270.981C109.969 269.058 107.702 268.007 105.077 267.893L104.903 271.889C106.471 271.957 107.759 272.546 108.866 273.722L111.779 270.981ZM106.99 269.891V250.613H102.99V269.891H106.99ZM104.99 252.613C113.505 252.613 120.293 256.227 125.501 263.656L128.776 261.36C122.865 252.929 114.887 248.613 104.99 248.613V252.613ZM125.5 263.655C128.543 268.002 129.924 271.89 129.924 275.359H133.924C133.924 270.807 132.114 266.128 128.777 261.361L125.5 263.655ZM129.924 275.359V320.34H133.924V275.359H129.924ZM129.924 320.34C129.924 329.72 125.811 336.83 117.365 341.864L119.413 345.3C129.013 339.579 133.924 331.194 133.924 320.34H129.924ZM117.389 341.85C112.863 344.461 108.741 345.684 104.99 345.684V349.684C109.625 349.684 114.435 348.172 119.388 345.314L117.389 341.85ZM142.861 347H140.861V349H142.861V347ZM142.861 251.297V249.297H140.861V251.297H142.861ZM192.627 251.297H194.627V249.297H192.627V251.297ZM192.627 270.438V272.438H194.627V270.438H192.627ZM162.139 270.438V268.438H160.139V270.438H162.139ZM162.139 289.852H160.139V291.852H162.139V289.852ZM179.775 289.852H181.775V287.852H179.775V289.852ZM179.775 309.129V311.129H181.775V309.129H179.775ZM162.139 309.129V307.129H160.139V309.129H162.139ZM162.139 327.723H160.139V329.723H162.139V327.723ZM192.627 327.723H194.627V325.723H192.627V327.723ZM192.627 347V349H194.627V347H192.627ZM144.861 347V251.297H140.861V347H144.861ZM142.861 253.297H192.627V249.297H142.861V253.297ZM190.627 251.297V270.438H194.627V251.297H190.627ZM192.627 268.438H162.139V272.438H192.627V268.438ZM160.139 270.438V289.852H164.139V270.438H160.139ZM162.139 291.852H179.775V287.852H162.139V291.852ZM177.775 289.852V309.129H181.775V289.852H177.775ZM179.775 307.129H162.139V311.129H179.775V307.129ZM160.139 309.129V327.723H164.139V309.129H160.139ZM162.139 329.723H192.627V325.723H162.139V329.723ZM190.627 327.723V347H194.627V327.723H190.627ZM192.627 345H142.861V349H192.627V345Z" fill="white"/>
</svg>
